<svg xmlns="http://www.w3.org/2000/svg" xmlns:xlink="http://www.w3.org/1999/xlink" width="1566" viewBox="0 0 1174.5 437.249996" height="583" preserveAspectRatio="xMidYMid meet"><defs><g></g></defs><g fill="#ffffff" fill-opacity="1"><g transform="translate(244.543307, 344.690147)"><g><path d="M 9.15625 -28.671875 C 8.289062 -28.160156 7.570312 -27.773438 7 -27.515625 C 5.882812 -28.796875 5.328125 -30.296875 5.328125 -32.015625 C 5.328125 -32.816406 5.46875 -33.648438 5.75 -34.515625 L 8.203125 -34.171875 C 7.972656 -33.503906 7.859375 -32.820312 7.859375 -32.125 C 7.859375 -30.75 8.289062 -29.597656 9.15625 -28.671875 Z M 14.1875 -28.671875 C 13.320312 -28.160156 12.601562 -27.773438 12.03125 -27.515625 C 10.945312 -28.765625 10.40625 -30.28125 10.40625 -32.0625 C 10.40625 -32.957031 10.53125 -33.773438 10.78125 -34.515625 L 13.234375 -34.171875 C 13.003906 -33.347656 12.890625 -32.664062 12.890625 -32.125 C 12.890625 -30.75 13.320312 -29.597656 14.1875 -28.671875 Z M 14.1875 -28.671875 "></path></g></g></g><g fill="#ffffff" fill-opacity="1"><g transform="translate(256.623717, 344.690147)"><g><path d="M 17.15625 -34.65625 C 20.414062 -34.65625 23.046875 -33.832031 25.046875 -32.1875 C 27.046875 -30.539062 28.046875 -28.21875 28.046875 -25.21875 C 28.046875 -23.164062 27.585938 -21.1875 26.671875 -19.28125 C 25.765625 -17.382812 24.328125 -15.820312 22.359375 -14.59375 C 20.398438 -13.363281 17.945312 -12.75 15 -12.75 L 10.0625 -12.75 L 8.484375 0 L 3.6875 0 L 7.953125 -34.65625 Z M 15.4375 -17.25 C 17.257812 -17.25 18.753906 -17.648438 19.921875 -18.453125 C 21.085938 -19.253906 21.925781 -20.222656 22.4375 -21.359375 C 22.945312 -22.492188 23.203125 -23.554688 23.203125 -24.546875 C 23.203125 -26.046875 22.691406 -27.351562 21.671875 -28.46875 C 20.648438 -29.59375 19.113281 -30.15625 17.0625 -30.15625 L 12.171875 -30.15625 L 10.59375 -17.25 Z M 15.4375 -17.25 "></path></g></g></g><g fill="#ffffff" fill-opacity="1"><g transform="translate(284.619577, 344.690147)"><g><path d="M 8.71875 -15.046875 C 9.644531 -16.742188 10.957031 -18.09375 12.65625 -19.09375 C 14.351562 -20.101562 15.96875 -20.625 17.5 -20.65625 L 16.734375 -16.203125 C 15.296875 -16.265625 13.953125 -15.972656 12.703125 -15.328125 C 11.453125 -14.691406 10.4375 -13.804688 9.65625 -12.671875 C 8.875 -11.546875 8.40625 -10.34375 8.25 -9.0625 L 7.140625 0 L 2.6875 0 L 5.078125 -19.84375 L 9.109375 -19.84375 Z M 8.71875 -15.046875 "></path></g></g></g><g fill="#ffffff" fill-opacity="1"><g transform="translate(302.788132, 344.690147)"><g><path d="M 12.65625 0.484375 C 10.925781 0.484375 9.242188 0.109375 7.609375 -0.640625 C 5.984375 -1.398438 4.660156 -2.519531 3.640625 -4 C 2.617188 -5.488281 2.109375 -7.253906 2.109375 -9.296875 C 2.109375 -11.085938 2.503906 -12.851562 3.296875 -14.59375 C 4.097656 -16.332031 5.363281 -17.769531 7.09375 -18.90625 C 8.820312 -20.039062 10.992188 -20.609375 13.609375 -20.609375 C 15.429688 -20.609375 17.140625 -20.21875 18.734375 -19.4375 C 20.335938 -18.65625 21.625 -17.519531 22.59375 -16.03125 C 23.570312 -14.550781 24.0625 -12.832031 24.0625 -10.875 C 24.0625 -9.21875 23.6875 -7.515625 22.9375 -5.765625 C 22.1875 -4.023438 20.957031 -2.546875 19.25 -1.328125 C 17.539062 -0.117188 15.34375 0.484375 12.65625 0.484375 Z M 12.796875 -3.265625 C 14.296875 -3.265625 15.550781 -3.640625 16.5625 -4.390625 C 17.570312 -5.140625 18.316406 -6.070312 18.796875 -7.1875 C 19.273438 -8.3125 19.515625 -9.460938 19.515625 -10.640625 C 19.515625 -12.046875 19.207031 -13.21875 18.59375 -14.15625 C 17.988281 -15.101562 17.210938 -15.800781 16.265625 -16.25 C 15.328125 -16.695312 14.378906 -16.921875 13.421875 -16.921875 C 11.921875 -16.921875 10.664062 -16.546875 9.65625 -15.796875 C 8.65625 -15.046875 7.90625 -14.101562 7.40625 -12.96875 C 6.90625 -11.832031 6.65625 -10.671875 6.65625 -9.484375 C 6.65625 -8.117188 6.953125 -6.972656 7.546875 -6.046875 C 8.140625 -5.117188 8.90625 -4.421875 9.84375 -3.953125 C 10.789062 -3.492188 11.773438 -3.265625 12.796875 -3.265625 Z M 12.796875 -3.265625 "></path></g></g></g><g fill="#ffffff" fill-opacity="1"><g transform="translate(328.962346, 344.690147)"><g><path d="M 16.875 -20.65625 C 18.570312 -20.65625 20.125 -20.269531 21.53125 -19.5 C 22.9375 -18.738281 24.035156 -17.675781 24.828125 -16.3125 C 25.628906 -14.957031 26.03125 -13.40625 26.03125 -11.65625 C 26.03125 -9.476562 25.507812 -7.460938 24.46875 -5.609375 C 23.4375 -3.753906 21.992188 -2.273438 20.140625 -1.171875 C 18.285156 -0.0664062 16.191406 0.484375 13.859375 0.484375 C 12.609375 0.484375 11.382812 0.226562 10.1875 -0.28125 C 8.988281 -0.789062 8.003906 -1.460938 7.234375 -2.296875 L 5.9375 9.546875 L 1.484375 9.546875 L 5.171875 -20.1875 L 9.0625 -20.1875 L 8.96875 -17.453125 C 10.207031 -18.441406 11.515625 -19.222656 12.890625 -19.796875 C 14.265625 -20.367188 15.59375 -20.65625 16.875 -20.65625 Z M 13.765625 -3.3125 C 15.234375 -3.3125 16.550781 -3.660156 17.71875 -4.359375 C 18.882812 -5.066406 19.800781 -6.007812 20.46875 -7.1875 C 21.132812 -8.375 21.46875 -9.640625 21.46875 -10.984375 C 21.46875 -12.734375 20.867188 -14.179688 19.671875 -15.328125 C 18.472656 -16.484375 17.03125 -17.0625 15.34375 -17.0625 C 13.769531 -17.0625 12.359375 -16.601562 11.109375 -15.6875 C 9.867188 -14.78125 8.960938 -13.546875 8.390625 -11.984375 L 7.90625 -8.390625 C 8.132812 -7.046875 8.726562 -5.863281 9.6875 -4.84375 C 10.644531 -3.820312 12.003906 -3.3125 13.765625 -3.3125 Z M 13.765625 -3.3125 "></path></g></g></g><g fill="#ffffff" fill-opacity="1"><g transform="translate(357.006152, 344.690147)"><g><path d="M 13.09375 -3.359375 C 14.53125 -3.359375 15.984375 -3.851562 17.453125 -4.84375 L 19.125 -1.390625 C 18.132812 -0.816406 17.070312 -0.367188 15.9375 -0.046875 C 14.800781 0.273438 13.691406 0.4375 12.609375 0.4375 C 9.441406 0.4375 6.90625 -0.445312 5 -2.21875 C 3.101562 -4 2.15625 -6.472656 2.15625 -9.640625 C 2.15625 -11.421875 2.59375 -13.160156 3.46875 -14.859375 C 4.351562 -16.554688 5.664062 -17.9375 7.40625 -19 C 9.144531 -20.070312 11.210938 -20.609375 13.609375 -20.609375 C 16.203125 -20.609375 18.375 -19.890625 20.125 -18.453125 C 21.882812 -17.015625 23.019531 -14.664062 23.53125 -11.40625 L 7.28125 -6.859375 C 7.820312 -5.703125 8.613281 -4.828125 9.65625 -4.234375 C 10.695312 -3.648438 11.84375 -3.359375 13.09375 -3.359375 Z M 13.46875 -17.0625 C 12.09375 -17.0625 10.882812 -16.738281 9.84375 -16.09375 C 8.8125 -15.457031 8.015625 -14.613281 7.453125 -13.5625 C 6.890625 -12.507812 6.609375 -11.359375 6.609375 -10.109375 L 6.609375 -9.640625 L 18.640625 -13.03125 C 18.296875 -14.25 17.660156 -15.222656 16.734375 -15.953125 C 15.804688 -16.691406 14.71875 -17.0625 13.46875 -17.0625 Z M 13.46875 -17.0625 "></path></g></g></g><g fill="#ffffff" fill-opacity="1"><g transform="translate(382.029854, 344.690147)"><g><path d="M 8.71875 -15.046875 C 9.644531 -16.742188 10.957031 -18.09375 12.65625 -19.09375 C 14.351562 -20.101562 15.96875 -20.625 17.5 -20.65625 L 16.734375 -16.203125 C 15.296875 -16.265625 13.953125 -15.972656 12.703125 -15.328125 C 11.453125 -14.691406 10.4375 -13.804688 9.65625 -12.671875 C 8.875 -11.546875 8.40625 -10.34375 8.25 -9.0625 L 7.140625 0 L 2.6875 0 L 5.078125 -19.84375 L 9.109375 -19.84375 Z M 8.71875 -15.046875 "></path></g></g></g><g fill="#ffffff" fill-opacity="1"><g transform="translate(400.198408, 344.690147)"><g><path d="M 12.46875 -28.578125 L 11.359375 -19.796875 L 16.828125 -19.796875 L 16.390625 -16.25 L 10.9375 -16.25 L 8.96875 0 L 4.5 0 L 6.46875 -16.25 L 2.828125 -16.25 L 3.265625 -19.796875 L 6.90625 -19.796875 L 7.953125 -28.578125 Z M 12.46875 -28.578125 "></path></g></g></g><g fill="#ffffff" fill-opacity="1"><g transform="translate(417.456135, 344.690147)"><g><path d="M 9.59375 -19.84375 L 7.140625 0 L 2.640625 0 L 5.078125 -19.84375 Z M 5.46875 -26.40625 C 5.46875 -27.144531 5.726562 -27.773438 6.25 -28.296875 C 6.78125 -28.828125 7.445312 -29.09375 8.25 -29.09375 C 8.914062 -29.09375 9.507812 -28.890625 10.03125 -28.484375 C 10.5625 -28.085938 10.828125 -27.539062 10.828125 -26.84375 C 10.828125 -26.070312 10.554688 -25.421875 10.015625 -24.890625 C 9.472656 -24.367188 8.800781 -24.109375 8 -24.109375 C 7.300781 -24.140625 6.703125 -24.351562 6.203125 -24.75 C 5.710938 -25.15625 5.46875 -25.707031 5.46875 -26.40625 Z M 5.46875 -26.40625 "></path></g></g></g><g fill="#ffffff" fill-opacity="1"><g transform="translate(429.68036, 344.690147)"><g></g></g></g><g fill="#ffffff" fill-opacity="1"><g transform="translate(444.061785, 344.690147)"><g><path d="M 24.734375 -27.859375 C 23.484375 -28.648438 22.140625 -29.300781 20.703125 -29.8125 C 19.265625 -30.320312 17.894531 -30.578125 16.59375 -30.578125 C 14.539062 -30.578125 12.988281 -30.082031 11.9375 -29.09375 C 10.882812 -28.101562 10.359375 -26.96875 10.359375 -25.6875 C 10.359375 -24.414062 10.941406 -23.320312 12.109375 -22.40625 C 13.273438 -21.5 14.925781 -20.550781 17.0625 -19.5625 C 19.457031 -18.5 21.332031 -17.289062 22.6875 -15.9375 C 24.050781 -14.582031 24.734375 -12.691406 24.734375 -10.265625 C 24.734375 -8.535156 24.289062 -6.851562 23.40625 -5.21875 C 22.53125 -3.59375 21.207031 -2.257812 19.4375 -1.21875 C 17.664062 -0.1875 15.5 0.328125 12.9375 0.328125 C 10.675781 0.328125 8.53125 -0.0664062 6.5 -0.859375 C 4.46875 -1.660156 2.6875 -2.71875 1.15625 -4.03125 L 3.640625 -7.578125 C 4.765625 -6.515625 6.164062 -5.625 7.84375 -4.90625 C 9.519531 -4.1875 11.15625 -3.828125 12.75 -3.828125 C 14.726562 -3.828125 16.375 -4.351562 17.6875 -5.40625 C 19 -6.46875 19.71875 -7.847656 19.84375 -9.546875 C 19.90625 -10.953125 19.398438 -12.148438 18.328125 -13.140625 C 17.265625 -14.128906 15.789062 -15.054688 13.90625 -15.921875 C 12.144531 -16.742188 10.710938 -17.5 9.609375 -18.1875 C 8.503906 -18.875 7.546875 -19.769531 6.734375 -20.875 C 5.921875 -21.976562 5.515625 -23.3125 5.515625 -24.875 C 5.515625 -26.894531 5.992188 -28.644531 6.953125 -30.125 C 7.910156 -31.613281 9.234375 -32.753906 10.921875 -33.546875 C 12.617188 -34.347656 14.523438 -34.734375 16.640625 -34.703125 C 18.742188 -34.609375 20.625 -34.265625 22.28125 -33.671875 C 23.945312 -33.085938 25.515625 -32.296875 26.984375 -31.296875 Z M 24.734375 -27.859375 "></path></g></g></g><g fill="#ffffff" fill-opacity="1"><g transform="translate(471.146828, 344.690147)"><g><path d="M 24.59375 -19.84375 L 8.203125 9.546875 L 3.6875 9.546875 L 9.546875 -0.71875 L 2.734375 -19.84375 L 7.765625 -19.84375 L 12.375 -5.75 L 20.375 -19.84375 Z M 24.59375 -19.84375 "></path></g></g></g><g fill="#ffffff" fill-opacity="1"><g transform="translate(494.876212, 344.690147)"><g><path d="M 25.59375 -19.84375 L 23.203125 0 L 18.703125 0 L 19.078125 -3.15625 C 18.273438 -2.238281 17.15625 -1.410156 15.71875 -0.671875 C 14.28125 0.0664062 12.617188 0.421875 10.734375 0.390625 C 9.234375 0.421875 7.816406 0.0351562 6.484375 -0.765625 C 5.160156 -1.566406 4.097656 -2.707031 3.296875 -4.1875 C 2.503906 -5.675781 2.109375 -7.363281 2.109375 -9.25 C 2.109375 -11.070312 2.554688 -12.867188 3.453125 -14.640625 C 4.347656 -16.421875 5.632812 -17.867188 7.3125 -18.984375 C 8.988281 -20.097656 10.945312 -20.65625 13.1875 -20.65625 C 16.757812 -20.65625 19.265625 -19.28125 20.703125 -16.53125 L 21.46875 -19.84375 Z M 20.140625 -12.03125 C 19.941406 -13.46875 19.265625 -14.648438 18.109375 -15.578125 C 16.960938 -16.503906 15.578125 -16.96875 13.953125 -16.96875 C 12.316406 -16.96875 10.960938 -16.582031 9.890625 -15.8125 C 8.828125 -15.050781 8.039062 -14.117188 7.53125 -13.015625 C 7.019531 -11.910156 6.765625 -10.832031 6.765625 -9.78125 C 6.765625 -7.863281 7.363281 -6.296875 8.5625 -5.078125 C 9.757812 -3.867188 11.300781 -3.265625 13.1875 -3.265625 C 14.65625 -3.265625 15.976562 -3.691406 17.15625 -4.546875 C 18.34375 -5.410156 19.191406 -6.59375 19.703125 -8.09375 Z M 20.140625 -12.03125 "></path></g></g></g><g fill="#ffffff" fill-opacity="1"><g transform="translate(523.159715, 344.690147)"><g><path d="M 8.71875 -15.046875 C 9.644531 -16.742188 10.957031 -18.09375 12.65625 -19.09375 C 14.351562 -20.101562 15.96875 -20.625 17.5 -20.65625 L 16.734375 -16.203125 C 15.296875 -16.265625 13.953125 -15.972656 12.703125 -15.328125 C 11.453125 -14.691406 10.4375 -13.804688 9.65625 -12.671875 C 8.875 -11.546875 8.40625 -10.34375 8.25 -9.0625 L 7.140625 0 L 2.6875 0 L 5.078125 -19.84375 L 9.109375 -19.84375 Z M 8.71875 -15.046875 "></path></g></g></g><g fill="#ffffff" fill-opacity="1"><g transform="translate(541.328281, 344.690147)"><g><path d="M 9.59375 -19.84375 L 7.140625 0 L 2.640625 0 L 5.078125 -19.84375 Z M 5.46875 -26.40625 C 5.46875 -27.144531 5.726562 -27.773438 6.25 -28.296875 C 6.78125 -28.828125 7.445312 -29.09375 8.25 -29.09375 C 8.914062 -29.09375 9.507812 -28.890625 10.03125 -28.484375 C 10.5625 -28.085938 10.828125 -27.539062 10.828125 -26.84375 C 10.828125 -26.070312 10.554688 -25.421875 10.015625 -24.890625 C 9.472656 -24.367188 8.800781 -24.109375 8 -24.109375 C 7.300781 -24.140625 6.703125 -24.351562 6.203125 -24.75 C 5.710938 -25.15625 5.46875 -25.707031 5.46875 -26.40625 Z M 5.46875 -26.40625 "></path></g></g></g><g fill="#ffffff" fill-opacity="1"><g transform="translate(553.552506, 344.690147)"><g><path d="M 25.59375 -19.84375 L 23.203125 0 L 18.703125 0 L 19.078125 -3.15625 C 18.273438 -2.238281 17.15625 -1.410156 15.71875 -0.671875 C 14.28125 0.0664062 12.617188 0.421875 10.734375 0.390625 C 9.234375 0.421875 7.816406 0.0351562 6.484375 -0.765625 C 5.160156 -1.566406 4.097656 -2.707031 3.296875 -4.1875 C 2.503906 -5.675781 2.109375 -7.363281 2.109375 -9.25 C 2.109375 -11.070312 2.554688 -12.867188 3.453125 -14.640625 C 4.347656 -16.421875 5.632812 -17.867188 7.3125 -18.984375 C 8.988281 -20.097656 10.945312 -20.65625 13.1875 -20.65625 C 16.757812 -20.65625 19.265625 -19.28125 20.703125 -16.53125 L 21.46875 -19.84375 Z M 20.140625 -12.03125 C 19.941406 -13.46875 19.265625 -14.648438 18.109375 -15.578125 C 16.960938 -16.503906 15.578125 -16.96875 13.953125 -16.96875 C 12.316406 -16.96875 10.960938 -16.582031 9.890625 -15.8125 C 8.828125 -15.050781 8.039062 -14.117188 7.53125 -13.015625 C 7.019531 -11.910156 6.765625 -10.832031 6.765625 -9.78125 C 6.765625 -7.863281 7.363281 -6.296875 8.5625 -5.078125 C 9.757812 -3.867188 11.300781 -3.265625 13.1875 -3.265625 C 14.65625 -3.265625 15.976562 -3.691406 17.15625 -4.546875 C 18.34375 -5.410156 19.191406 -6.59375 19.703125 -8.09375 Z M 20.140625 -12.03125 "></path></g></g></g><g fill="#ffffff" fill-opacity="1"><g transform="translate(581.835986, 344.690147)"><g><path d="M 17.5 -20.609375 C 19.21875 -20.609375 20.613281 -20.117188 21.6875 -19.140625 C 22.757812 -18.171875 23.296875 -16.90625 23.296875 -15.34375 L 23.25 -14.671875 L 21.46875 0 L 16.96875 0 L 18.546875 -13.234375 C 18.648438 -14.285156 18.4375 -15.128906 17.90625 -15.765625 C 17.375 -16.410156 16.535156 -16.75 15.390625 -16.78125 C 13.597656 -16.78125 12.03125 -16.066406 10.6875 -14.640625 C 9.34375 -13.222656 8.546875 -11.441406 8.296875 -9.296875 L 7.140625 0 L 2.6875 0 L 7.1875 -37.15625 L 11.59375 -37.15625 L 9.0625 -16.4375 C 9.957031 -17.71875 11.144531 -18.734375 12.625 -19.484375 C 14.113281 -20.234375 15.738281 -20.609375 17.5 -20.609375 Z M 17.5 -20.609375 "></path></g></g></g><g fill="#ffffff" fill-opacity="1"><g transform="translate(608.393701, 344.690147)"><g><path d="M -0.4375 8.046875 C 0.269531 7.503906 0.816406 6.738281 1.203125 5.75 C 1.585938 4.757812 1.78125 3.707031 1.78125 2.59375 C 1.78125 2.207031 1.757812 1.914062 1.71875 1.71875 L 5.703125 1.78125 C 5.734375 1.9375 5.75 2.207031 5.75 2.59375 C 5.75 3.9375 5.394531 5.273438 4.6875 6.609375 C 3.988281 7.953125 3.050781 8.976562 1.875 9.6875 Z M -0.4375 8.046875 "></path></g></g></g><g fill="#ffffff" fill-opacity="1"><g transform="translate(618.125138, 344.690147)"><g></g></g></g><g fill="#ffffff" fill-opacity="1"><g transform="translate(632.506586, 344.690147)"><g><path d="M 20.859375 -17.59375 C 22.515625 -17.144531 23.867188 -16.320312 24.921875 -15.125 C 25.984375 -13.925781 26.515625 -12.367188 26.515625 -10.453125 C 26.515625 -6.992188 25.363281 -4.382812 23.0625 -2.625 C 20.757812 -0.875 17.847656 0 14.328125 0 L 3.6875 0 L 7.953125 -34.65625 L 16.875 -34.65625 C 20.132812 -34.65625 22.617188 -34.054688 24.328125 -32.859375 C 26.035156 -31.660156 26.890625 -29.75 26.890625 -27.125 C 26.890625 -24.988281 26.410156 -23.015625 25.453125 -21.203125 C 24.492188 -19.398438 22.960938 -18.195312 20.859375 -17.59375 Z M 10.875 -19.515625 L 15.96875 -19.515625 C 17.40625 -19.515625 18.578125 -19.859375 19.484375 -20.546875 C 20.398438 -21.234375 21.046875 -22.054688 21.421875 -23.015625 C 21.804688 -23.972656 22 -24.914062 22 -25.84375 C 22 -28.84375 20.144531 -30.34375 16.4375 -30.34375 L 12.21875 -30.34375 Z M 14.53125 -4.3125 C 16.820312 -4.3125 18.609375 -4.894531 19.890625 -6.0625 C 21.171875 -7.226562 21.8125 -8.738281 21.8125 -10.59375 C 21.8125 -12.21875 21.179688 -13.429688 19.921875 -14.234375 C 18.660156 -15.035156 17.132812 -15.4375 15.34375 -15.4375 L 10.359375 -15.4375 L 9.0625 -4.3125 Z M 14.53125 -4.3125 "></path></g></g></g><g fill="#ffffff" fill-opacity="1"><g transform="translate(661.940568, 344.690147)"><g><path d="M 9.59375 -19.84375 L 7.140625 0 L 2.640625 0 L 5.078125 -19.84375 Z M 5.46875 -26.40625 C 5.46875 -27.144531 5.726562 -27.773438 6.25 -28.296875 C 6.78125 -28.828125 7.445312 -29.09375 8.25 -29.09375 C 8.914062 -29.09375 9.507812 -28.890625 10.03125 -28.484375 C 10.5625 -28.085938 10.828125 -27.539062 10.828125 -26.84375 C 10.828125 -26.070312 10.554688 -25.421875 10.015625 -24.890625 C 9.472656 -24.367188 8.800781 -24.109375 8 -24.109375 C 7.300781 -24.140625 6.703125 -24.351562 6.203125 -24.75 C 5.710938 -25.15625 5.46875 -25.707031 5.46875 -26.40625 Z M 5.46875 -26.40625 "></path></g></g></g><g fill="#ffffff" fill-opacity="1"><g transform="translate(674.16477, 344.690147)"><g><path d="M 8.875 0.4375 C 7.5625 0.4375 6.175781 0.171875 4.71875 -0.359375 C 3.269531 -0.890625 2.066406 -1.804688 1.109375 -3.109375 L 3.3125 -5.5625 C 4.8125 -3.738281 6.648438 -2.828125 8.828125 -2.828125 C 9.910156 -2.828125 10.722656 -3.101562 11.265625 -3.65625 C 11.804688 -4.21875 12.078125 -4.820312 12.078125 -5.46875 C 12.078125 -6.070312 11.882812 -6.566406 11.5 -6.953125 C 11.125 -7.335938 10.710938 -7.632812 10.265625 -7.84375 C 9.816406 -8.050781 9 -8.378906 7.8125 -8.828125 C 4.875 -10.003906 3.40625 -11.789062 3.40625 -14.1875 C 3.40625 -15.144531 3.644531 -16.101562 4.125 -17.0625 C 4.601562 -18.019531 5.375 -18.832031 6.4375 -19.5 C 7.507812 -20.175781 8.863281 -20.515625 10.5 -20.515625 C 11.707031 -20.515625 12.953125 -20.332031 14.234375 -19.96875 C 15.515625 -19.601562 16.648438 -18.921875 17.640625 -17.921875 L 15.53125 -15.25 C 14.957031 -15.976562 14.269531 -16.507812 13.46875 -16.84375 C 12.664062 -17.1875 11.851562 -17.359375 11.03125 -17.359375 C 10.070312 -17.359375 9.328125 -17.097656 8.796875 -16.578125 C 8.265625 -16.066406 8 -15.492188 8 -14.859375 C 8.03125 -14.160156 8.316406 -13.609375 8.859375 -13.203125 C 9.410156 -12.804688 10.035156 -12.472656 10.734375 -12.203125 C 11.441406 -11.929688 11.921875 -11.75 12.171875 -11.65625 C 13.609375 -11.007812 14.710938 -10.285156 15.484375 -9.484375 C 16.253906 -8.691406 16.640625 -7.625 16.640625 -6.28125 C 16.640625 -5.226562 16.363281 -4.1875 15.8125 -3.15625 C 15.269531 -2.132812 14.414062 -1.28125 13.25 -0.59375 C 12.082031 0.09375 10.625 0.4375 8.875 0.4375 Z M 8.875 0.4375 "></path></g></g></g><g fill="#ffffff" fill-opacity="1"><g transform="translate(693.771469, 344.690147)"><g><path d="M 17.40625 -20.609375 C 19.1875 -20.609375 20.613281 -20.128906 21.6875 -19.171875 C 22.757812 -18.210938 23.296875 -16.953125 23.296875 -15.390625 C 23.296875 -15.066406 23.28125 -14.828125 23.25 -14.671875 L 21.46875 0 L 16.96875 0 L 18.59375 -13.140625 C 18.695312 -14.253906 18.457031 -15.140625 17.875 -15.796875 C 17.300781 -16.453125 16.410156 -16.78125 15.203125 -16.78125 C 13.441406 -16.78125 11.910156 -16.078125 10.609375 -14.671875 C 9.316406 -13.265625 8.546875 -11.472656 8.296875 -9.296875 L 7.140625 0 L 2.6875 0 L 5.078125 -19.84375 L 9.109375 -19.84375 L 9.0625 -16.53125 C 9.988281 -17.78125 11.171875 -18.769531 12.609375 -19.5 C 14.046875 -20.238281 15.644531 -20.609375 17.40625 -20.609375 Z M 17.40625 -20.609375 "></path></g></g></g><g fill="#ffffff" fill-opacity="1"><g transform="translate(720.329185, 344.690147)"><g><path d="M 9.59375 -19.84375 L 7.140625 0 L 2.640625 0 L 5.078125 -19.84375 Z M 5.46875 -26.40625 C 5.46875 -27.144531 5.726562 -27.773438 6.25 -28.296875 C 6.78125 -28.828125 7.445312 -29.09375 8.25 -29.09375 C 8.914062 -29.09375 9.507812 -28.890625 10.03125 -28.484375 C 10.5625 -28.085938 10.828125 -27.539062 10.828125 -26.84375 C 10.828125 -26.070312 10.554688 -25.421875 10.015625 -24.890625 C 9.472656 -24.367188 8.800781 -24.109375 8 -24.109375 C 7.300781 -24.140625 6.703125 -24.351562 6.203125 -24.75 C 5.710938 -25.15625 5.46875 -25.707031 5.46875 -26.40625 Z M 5.46875 -26.40625 "></path></g></g></g><g fill="#ffffff" fill-opacity="1"><g transform="translate(732.553433, 344.690147)"><g><path d="M 8.875 0.4375 C 7.5625 0.4375 6.175781 0.171875 4.71875 -0.359375 C 3.269531 -0.890625 2.066406 -1.804688 1.109375 -3.109375 L 3.3125 -5.5625 C 4.8125 -3.738281 6.648438 -2.828125 8.828125 -2.828125 C 9.910156 -2.828125 10.722656 -3.101562 11.265625 -3.65625 C 11.804688 -4.21875 12.078125 -4.820312 12.078125 -5.46875 C 12.078125 -6.070312 11.882812 -6.566406 11.5 -6.953125 C 11.125 -7.335938 10.710938 -7.632812 10.265625 -7.84375 C 9.816406 -8.050781 9 -8.378906 7.8125 -8.828125 C 4.875 -10.003906 3.40625 -11.789062 3.40625 -14.1875 C 3.40625 -15.144531 3.644531 -16.101562 4.125 -17.0625 C 4.601562 -18.019531 5.375 -18.832031 6.4375 -19.5 C 7.507812 -20.175781 8.863281 -20.515625 10.5 -20.515625 C 11.707031 -20.515625 12.953125 -20.332031 14.234375 -19.96875 C 15.515625 -19.601562 16.648438 -18.921875 17.640625 -17.921875 L 15.53125 -15.25 C 14.957031 -15.976562 14.269531 -16.507812 13.46875 -16.84375 C 12.664062 -17.1875 11.851562 -17.359375 11.03125 -17.359375 C 10.070312 -17.359375 9.328125 -17.097656 8.796875 -16.578125 C 8.265625 -16.066406 8 -15.492188 8 -14.859375 C 8.03125 -14.160156 8.316406 -13.609375 8.859375 -13.203125 C 9.410156 -12.804688 10.035156 -12.472656 10.734375 -12.203125 C 11.441406 -11.929688 11.921875 -11.75 12.171875 -11.65625 C 13.609375 -11.007812 14.710938 -10.285156 15.484375 -9.484375 C 16.253906 -8.691406 16.640625 -7.625 16.640625 -6.28125 C 16.640625 -5.226562 16.363281 -4.1875 15.8125 -3.15625 C 15.269531 -2.132812 14.414062 -1.28125 13.25 -0.59375 C 12.082031 0.09375 10.625 0.4375 8.875 0.4375 Z M 8.875 0.4375 "></path></g></g></g><g fill="#ffffff" fill-opacity="1"><g transform="translate(752.160132, 344.690147)"><g></g></g></g><g fill="#ffffff" fill-opacity="1"><g transform="translate(766.541557, 344.690147)"><g><path d="M 20.859375 -17.59375 C 22.515625 -17.144531 23.867188 -16.320312 24.921875 -15.125 C 25.984375 -13.925781 26.515625 -12.367188 26.515625 -10.453125 C 26.515625 -6.992188 25.363281 -4.382812 23.0625 -2.625 C 20.757812 -0.875 17.847656 0 14.328125 0 L 3.6875 0 L 7.953125 -34.65625 L 16.875 -34.65625 C 20.132812 -34.65625 22.617188 -34.054688 24.328125 -32.859375 C 26.035156 -31.660156 26.890625 -29.75 26.890625 -27.125 C 26.890625 -24.988281 26.410156 -23.015625 25.453125 -21.203125 C 24.492188 -19.398438 22.960938 -18.195312 20.859375 -17.59375 Z M 10.875 -19.515625 L 15.96875 -19.515625 C 17.40625 -19.515625 18.578125 -19.859375 19.484375 -20.546875 C 20.398438 -21.234375 21.046875 -22.054688 21.421875 -23.015625 C 21.804688 -23.972656 22 -24.914062 22 -25.84375 C 22 -28.84375 20.144531 -30.34375 16.4375 -30.34375 L 12.21875 -30.34375 Z M 14.53125 -4.3125 C 16.820312 -4.3125 18.609375 -4.894531 19.890625 -6.0625 C 21.171875 -7.226562 21.8125 -8.738281 21.8125 -10.59375 C 21.8125 -12.21875 21.179688 -13.429688 19.921875 -14.234375 C 18.660156 -15.035156 17.132812 -15.4375 15.34375 -15.4375 L 10.359375 -15.4375 L 9.0625 -4.3125 Z M 14.53125 -4.3125 "></path></g></g></g><g fill="#ffffff" fill-opacity="1"><g transform="translate(795.975585, 344.690147)"><g><path d="M 13.09375 -3.359375 C 14.53125 -3.359375 15.984375 -3.851562 17.453125 -4.84375 L 19.125 -1.390625 C 18.132812 -0.816406 17.070312 -0.367188 15.9375 -0.046875 C 14.800781 0.273438 13.691406 0.4375 12.609375 0.4375 C 9.441406 0.4375 6.90625 -0.445312 5 -2.21875 C 3.101562 -4 2.15625 -6.472656 2.15625 -9.640625 C 2.15625 -11.421875 2.59375 -13.160156 3.46875 -14.859375 C 4.351562 -16.554688 5.664062 -17.9375 7.40625 -19 C 9.144531 -20.070312 11.210938 -20.609375 13.609375 -20.609375 C 16.203125 -20.609375 18.375 -19.890625 20.125 -18.453125 C 21.882812 -17.015625 23.019531 -14.664062 23.53125 -11.40625 L 7.28125 -6.859375 C 7.820312 -5.703125 8.613281 -4.828125 9.65625 -4.234375 C 10.695312 -3.648438 11.84375 -3.359375 13.09375 -3.359375 Z M 13.46875 -17.0625 C 12.09375 -17.0625 10.882812 -16.738281 9.84375 -16.09375 C 8.8125 -15.457031 8.015625 -14.613281 7.453125 -13.5625 C 6.890625 -12.507812 6.609375 -11.359375 6.609375 -10.109375 L 6.609375 -9.640625 L 18.640625 -13.03125 C 18.296875 -14.25 17.660156 -15.222656 16.734375 -15.953125 C 15.804688 -16.691406 14.71875 -17.0625 13.46875 -17.0625 Z M 13.46875 -17.0625 "></path></g></g></g><g fill="#ffffff" fill-opacity="1"><g transform="translate(820.999297, 344.690147)"><g><path d="M 8.71875 -15.046875 C 9.644531 -16.742188 10.957031 -18.09375 12.65625 -19.09375 C 14.351562 -20.101562 15.96875 -20.625 17.5 -20.65625 L 16.734375 -16.203125 C 15.296875 -16.265625 13.953125 -15.972656 12.703125 -15.328125 C 11.453125 -14.691406 10.4375 -13.804688 9.65625 -12.671875 C 8.875 -11.546875 8.40625 -10.34375 8.25 -9.0625 L 7.140625 0 L 2.6875 0 L 5.078125 -19.84375 L 9.109375 -19.84375 Z M 8.71875 -15.046875 "></path></g></g></g><g fill="#ffffff" fill-opacity="1"><g transform="translate(839.167863, 344.690147)"><g><path d="M 14.234375 -12.03125 L 21.09375 0 L 15.875 0 L 10.875 -9.546875 L 8.046875 -7.484375 L 7.140625 0 L 2.6875 0 L 7.1875 -37.15625 L 11.703125 -37.15625 L 8.625 -12.21875 L 19.75 -20.328125 L 22.296875 -17.921875 Z M 14.234375 -12.03125 "></path></g></g></g><g fill="#ffffff" fill-opacity="1"><g transform="translate(863.088962, 344.690147)"><g><path d="M 25.59375 -19.84375 L 23.203125 0 L 18.703125 0 L 19.078125 -3.15625 C 18.273438 -2.238281 17.15625 -1.410156 15.71875 -0.671875 C 14.28125 0.0664062 12.617188 0.421875 10.734375 0.390625 C 9.234375 0.421875 7.816406 0.0351562 6.484375 -0.765625 C 5.160156 -1.566406 4.097656 -2.707031 3.296875 -4.1875 C 2.503906 -5.675781 2.109375 -7.363281 2.109375 -9.25 C 2.109375 -11.070312 2.554688 -12.867188 3.453125 -14.640625 C 4.347656 -16.421875 5.632812 -17.867188 7.3125 -18.984375 C 8.988281 -20.097656 10.945312 -20.65625 13.1875 -20.65625 C 16.757812 -20.65625 19.265625 -19.28125 20.703125 -16.53125 L 21.46875 -19.84375 Z M 20.140625 -12.03125 C 19.941406 -13.46875 19.265625 -14.648438 18.109375 -15.578125 C 16.960938 -16.503906 15.578125 -16.96875 13.953125 -16.96875 C 12.316406 -16.96875 10.960938 -16.582031 9.890625 -15.8125 C 8.828125 -15.050781 8.039062 -14.117188 7.53125 -13.015625 C 7.019531 -11.910156 6.765625 -10.832031 6.765625 -9.78125 C 6.765625 -7.863281 7.363281 -6.296875 8.5625 -5.078125 C 9.757812 -3.867188 11.300781 -3.265625 13.1875 -3.265625 C 14.65625 -3.265625 15.976562 -3.691406 17.15625 -4.546875 C 18.34375 -5.410156 19.191406 -6.59375 19.703125 -8.09375 Z M 20.140625 -12.03125 "></path></g></g></g><g fill="#ffffff" fill-opacity="1"><g transform="translate(891.372466, 344.690147)"><g><path d="M 17.5 -20.609375 C 19.21875 -20.609375 20.613281 -20.117188 21.6875 -19.140625 C 22.757812 -18.171875 23.296875 -16.90625 23.296875 -15.34375 L 23.25 -14.671875 L 21.46875 0 L 16.96875 0 L 18.546875 -13.234375 C 18.648438 -14.285156 18.4375 -15.128906 17.90625 -15.765625 C 17.375 -16.410156 16.535156 -16.75 15.390625 -16.78125 C 13.597656 -16.78125 12.03125 -16.066406 10.6875 -14.640625 C 9.34375 -13.222656 8.546875 -11.441406 8.296875 -9.296875 L 7.140625 0 L 2.6875 0 L 7.1875 -37.15625 L 11.59375 -37.15625 L 9.0625 -16.4375 C 9.957031 -17.71875 11.144531 -18.734375 12.625 -19.484375 C 14.113281 -20.234375 15.738281 -20.609375 17.5 -20.609375 Z M 17.5 -20.609375 "></path></g></g></g><g fill="#ffffff" fill-opacity="1"><g transform="translate(917.930181, 344.690147)"><g><path d="M 5.890625 -27.515625 C 5.410156 -27.773438 4.804688 -28.160156 4.078125 -28.671875 C 4.867188 -29.335938 5.460938 -30.148438 5.859375 -31.109375 C 6.265625 -32.066406 6.421875 -33.085938 6.328125 -34.171875 L 8.921875 -34.515625 C 9.015625 -33.203125 8.789062 -31.929688 8.25 -30.703125 C 7.707031 -29.472656 6.921875 -28.410156 5.890625 -27.515625 Z M 10.9375 -27.515625 C 10.257812 -27.898438 9.648438 -28.285156 9.109375 -28.671875 C 9.910156 -29.335938 10.507812 -30.140625 10.90625 -31.078125 C 11.300781 -32.023438 11.46875 -33.054688 11.40625 -34.171875 L 13.953125 -34.515625 C 14.046875 -33.203125 13.820312 -31.929688 13.28125 -30.703125 C 12.738281 -29.472656 11.957031 -28.410156 10.9375 -27.515625 Z M 10.9375 -27.515625 "></path></g></g></g><g fill="#ffffff" fill-opacity="1"><g transform="translate(181.179673, 137.075856)"><g><path d="M 32.109375 -23.734375 C 34.785156 -23.160156 36.9375 -21.828125 38.5625 -19.734375 C 40.1875 -17.648438 41 -15.269531 41 -12.59375 C 41 -8.726562 39.644531 -5.660156 36.9375 -3.390625 C 34.238281 -1.128906 30.472656 0 25.640625 0 L 4.09375 0 L 4.09375 -46.28125 L 24.921875 -46.28125 C 29.617188 -46.28125 33.296875 -45.203125 35.953125 -43.046875 C 38.617188 -40.890625 39.953125 -37.96875 39.953125 -34.28125 C 39.953125 -31.550781 39.234375 -29.285156 37.796875 -27.484375 C 36.367188 -25.679688 34.472656 -24.429688 32.109375 -23.734375 Z M 15.359375 -27.5625 L 22.75 -27.5625 C 24.59375 -27.5625 26.007812 -27.96875 27 -28.78125 C 27.988281 -29.59375 28.484375 -30.789062 28.484375 -32.375 C 28.484375 -33.945312 27.988281 -35.148438 27 -35.984375 C 26.007812 -36.828125 24.59375 -37.25 22.75 -37.25 L 15.359375 -37.25 Z M 23.671875 -9.09375 C 25.554688 -9.09375 27.015625 -9.519531 28.046875 -10.375 C 29.078125 -11.238281 29.59375 -12.484375 29.59375 -14.109375 C 29.59375 -15.734375 29.054688 -17.003906 27.984375 -17.921875 C 26.910156 -18.847656 25.425781 -19.3125 23.53125 -19.3125 L 15.359375 -19.3125 L 15.359375 -9.09375 Z M 23.671875 -9.09375 "></path></g></g></g><g fill="#ffffff" fill-opacity="1"><g transform="translate(224.617706, 137.075856)"><g><path d="M 15.359375 -46.28125 L 15.359375 0 L 4.09375 0 L 4.09375 -46.28125 Z M 15.359375 -46.28125 "></path></g></g></g><g fill="#ffffff" fill-opacity="1"><g transform="translate(244.062657, 137.075856)"><g><path d="M 20.828125 0.46875 C 17.441406 0.46875 14.410156 -0.078125 11.734375 -1.171875 C 9.054688 -2.273438 6.914062 -3.90625 5.3125 -6.0625 C 3.707031 -8.21875 2.859375 -10.8125 2.765625 -13.84375 L 14.765625 -13.84375 C 14.941406 -12.125 15.535156 -10.8125 16.546875 -9.90625 C 17.554688 -9.007812 18.875 -8.5625 20.5 -8.5625 C 22.164062 -8.5625 23.484375 -8.945312 24.453125 -9.71875 C 25.421875 -10.488281 25.90625 -11.554688 25.90625 -12.921875 C 25.90625 -14.066406 25.519531 -15.007812 24.75 -15.75 C 23.976562 -16.5 23.03125 -17.113281 21.90625 -17.59375 C 20.789062 -18.082031 19.203125 -18.632812 17.140625 -19.25 C 14.148438 -20.175781 11.707031 -21.097656 9.8125 -22.015625 C 7.925781 -22.941406 6.300781 -24.304688 4.9375 -26.109375 C 3.582031 -27.910156 2.90625 -30.257812 2.90625 -33.15625 C 2.90625 -37.46875 4.460938 -40.84375 7.578125 -43.28125 C 10.703125 -45.71875 14.769531 -46.9375 19.78125 -46.9375 C 24.875 -46.9375 28.976562 -45.71875 32.09375 -43.28125 C 35.21875 -40.84375 36.890625 -37.445312 37.109375 -33.09375 L 24.921875 -33.09375 C 24.828125 -34.582031 24.273438 -35.753906 23.265625 -36.609375 C 22.253906 -37.472656 20.957031 -37.90625 19.375 -37.90625 C 18.019531 -37.90625 16.921875 -37.539062 16.078125 -36.8125 C 15.242188 -36.09375 14.828125 -35.050781 14.828125 -33.6875 C 14.828125 -32.1875 15.53125 -31.019531 16.9375 -30.1875 C 18.34375 -29.351562 20.539062 -28.453125 23.53125 -27.484375 C 26.519531 -26.472656 28.945312 -25.503906 30.8125 -24.578125 C 32.6875 -23.660156 34.300781 -22.320312 35.65625 -20.5625 C 37.019531 -18.8125 37.703125 -16.550781 37.703125 -13.78125 C 37.703125 -11.144531 37.03125 -8.75 35.6875 -6.59375 C 34.351562 -4.4375 32.410156 -2.71875 29.859375 -1.4375 C 27.316406 -0.164062 24.304688 0.46875 20.828125 0.46875 Z M 20.828125 0.46875 "></path></g></g></g><g fill="#ffffff" fill-opacity="1"><g transform="translate(284.600433, 137.075856)"><g><path d="M 45.484375 0 L 34.21875 0 L 15.359375 -28.546875 L 15.359375 0 L 4.09375 0 L 4.09375 -46.28125 L 15.359375 -46.28125 L 34.21875 -17.59375 L 34.21875 -46.28125 L 45.484375 -46.28125 Z M 45.484375 0 "></path></g></g></g><g fill="#ffffff" fill-opacity="1"><g transform="translate(334.168568, 137.075856)"><g><path d="M 15.359375 -46.28125 L 15.359375 0 L 4.09375 0 L 4.09375 -46.28125 Z M 15.359375 -46.28125 "></path></g></g></g><g fill="#ffffff" fill-opacity="1"><g transform="translate(353.61352, 137.075856)"><g><path d="M 20.828125 0.46875 C 17.441406 0.46875 14.410156 -0.078125 11.734375 -1.171875 C 9.054688 -2.273438 6.914062 -3.90625 5.3125 -6.0625 C 3.707031 -8.21875 2.859375 -10.8125 2.765625 -13.84375 L 14.765625 -13.84375 C 14.941406 -12.125 15.535156 -10.8125 16.546875 -9.90625 C 17.554688 -9.007812 18.875 -8.5625 20.5 -8.5625 C 22.164062 -8.5625 23.484375 -8.945312 24.453125 -9.71875 C 25.421875 -10.488281 25.90625 -11.554688 25.90625 -12.921875 C 25.90625 -14.066406 25.519531 -15.007812 24.75 -15.75 C 23.976562 -16.5 23.03125 -17.113281 21.90625 -17.59375 C 20.789062 -18.082031 19.203125 -18.632812 17.140625 -19.25 C 14.148438 -20.175781 11.707031 -21.097656 9.8125 -22.015625 C 7.925781 -22.941406 6.300781 -24.304688 4.9375 -26.109375 C 3.582031 -27.910156 2.90625 -30.257812 2.90625 -33.15625 C 2.90625 -37.46875 4.460938 -40.84375 7.578125 -43.28125 C 10.703125 -45.71875 14.769531 -46.9375 19.78125 -46.9375 C 24.875 -46.9375 28.976562 -45.71875 32.09375 -43.28125 C 35.21875 -40.84375 36.890625 -37.445312 37.109375 -33.09375 L 24.921875 -33.09375 C 24.828125 -34.582031 24.273438 -35.753906 23.265625 -36.609375 C 22.253906 -37.472656 20.957031 -37.90625 19.375 -37.90625 C 18.019531 -37.90625 16.921875 -37.539062 16.078125 -36.8125 C 15.242188 -36.09375 14.828125 -35.050781 14.828125 -33.6875 C 14.828125 -32.1875 15.53125 -31.019531 16.9375 -30.1875 C 18.34375 -29.351562 20.539062 -28.453125 23.53125 -27.484375 C 26.519531 -26.472656 28.945312 -25.503906 30.8125 -24.578125 C 32.6875 -23.660156 34.300781 -22.320312 35.65625 -20.5625 C 37.019531 -18.8125 37.703125 -16.550781 37.703125 -13.78125 C 37.703125 -11.144531 37.03125 -8.75 35.6875 -6.59375 C 34.351562 -4.4375 32.410156 -2.71875 29.859375 -1.4375 C 27.316406 -0.164062 24.304688 0.46875 20.828125 0.46875 Z M 20.828125 0.46875 "></path></g></g></g><g fill="#ffffff" fill-opacity="1"><g transform="translate(394.151284, 137.075856)"><g></g></g></g><g fill="#ffffff" fill-opacity="1"><g transform="translate(408.125276, 137.075856)"><g><path d="M 21.421875 -46.28125 C 26.296875 -46.28125 30.554688 -45.3125 34.203125 -43.375 C 37.859375 -41.4375 40.6875 -38.722656 42.6875 -35.234375 C 44.6875 -31.742188 45.6875 -27.710938 45.6875 -23.140625 C 45.6875 -18.609375 44.6875 -14.582031 42.6875 -11.0625 C 40.6875 -7.550781 37.847656 -4.828125 34.171875 -2.890625 C 30.503906 -0.960938 26.253906 0 21.421875 0 L 4.09375 0 L 4.09375 -46.28125 Z M 20.703125 -9.75 C 24.960938 -9.75 28.28125 -10.914062 30.65625 -13.25 C 33.03125 -15.582031 34.21875 -18.878906 34.21875 -23.140625 C 34.21875 -27.398438 33.03125 -30.71875 30.65625 -33.09375 C 28.28125 -35.46875 24.960938 -36.65625 20.703125 -36.65625 L 15.359375 -36.65625 L 15.359375 -9.75 Z M 20.703125 -9.75 "></path></g></g></g><g fill="#ffffff" fill-opacity="1"><g transform="translate(456.045538, 137.075856)"><g><path d="M 15.359375 -37.25 L 15.359375 -27.890625 L 30.453125 -27.890625 L 30.453125 -19.1875 L 15.359375 -19.1875 L 15.359375 -9.03125 L 32.4375 -9.03125 L 32.4375 0 L 4.09375 0 L 4.09375 -46.28125 L 32.4375 -46.28125 L 32.4375 -37.25 Z M 15.359375 -37.25 "></path></g></g></g><g fill="#ffffff" fill-opacity="1"><g transform="translate(491.705594, 137.075856)"><g><path d="M 47.53125 -46.28125 L 31.109375 0 L 17.015625 0 L 0.59375 -46.28125 L 12.59375 -46.28125 L 24.0625 -11.34375 L 35.59375 -46.28125 Z M 47.53125 -46.28125 "></path></g></g></g><g fill="#ffffff" fill-opacity="1"><g transform="translate(539.823584, 137.075856)"><g><path d="M 15.359375 -37.25 L 15.359375 -27.890625 L 30.453125 -27.890625 L 30.453125 -19.1875 L 15.359375 -19.1875 L 15.359375 -9.03125 L 32.4375 -9.03125 L 32.4375 0 L 4.09375 0 L 4.09375 -46.28125 L 32.4375 -46.28125 L 32.4375 -37.25 Z M 15.359375 -37.25 "></path></g></g></g><g fill="#ffffff" fill-opacity="1"><g transform="translate(575.483641, 137.075856)"><g><path d="M 15.359375 -8.703125 L 30.125 -8.703125 L 30.125 0 L 4.09375 0 L 4.09375 -46.28125 L 15.359375 -46.28125 Z M 15.359375 -8.703125 "></path></g></g></g><g fill="#ffffff" fill-opacity="1"><g transform="translate(606.925121, 137.075856)"><g><path d="M 25.96875 0.46875 C 21.625 0.46875 17.632812 -0.539062 14 -2.5625 C 10.375 -4.59375 7.492188 -7.421875 5.359375 -11.046875 C 3.234375 -14.671875 2.171875 -18.742188 2.171875 -23.265625 C 2.171875 -27.796875 3.234375 -31.863281 5.359375 -35.46875 C 7.492188 -39.070312 10.375 -41.882812 14 -43.90625 C 17.632812 -45.925781 21.625 -46.9375 25.96875 -46.9375 C 30.320312 -46.9375 34.3125 -45.925781 37.9375 -43.90625 C 41.5625 -41.882812 44.414062 -39.070312 46.5 -35.46875 C 48.59375 -31.863281 49.640625 -27.796875 49.640625 -23.265625 C 49.640625 -18.742188 48.582031 -14.671875 46.46875 -11.046875 C 44.363281 -7.421875 41.507812 -4.59375 37.90625 -2.5625 C 34.300781 -0.539062 30.320312 0.46875 25.96875 0.46875 Z M 25.96875 -9.828125 C 29.664062 -9.828125 32.625 -11.054688 34.84375 -13.515625 C 37.0625 -15.972656 38.171875 -19.222656 38.171875 -23.265625 C 38.171875 -27.359375 37.0625 -30.625 34.84375 -33.0625 C 32.625 -35.5 29.664062 -36.71875 25.96875 -36.71875 C 22.238281 -36.71875 19.265625 -35.507812 17.046875 -33.09375 C 14.828125 -30.675781 13.71875 -27.398438 13.71875 -23.265625 C 13.71875 -19.179688 14.828125 -15.921875 17.046875 -13.484375 C 19.265625 -11.046875 22.238281 -9.828125 25.96875 -9.828125 Z M 25.96875 -9.828125 "></path></g></g></g><g fill="#ffffff" fill-opacity="1"><g transform="translate(658.734359, 137.075856)"><g><path d="M 39.359375 -31.375 C 39.359375 -28.695312 38.738281 -26.25 37.5 -24.03125 C 36.269531 -21.8125 34.378906 -20.019531 31.828125 -18.65625 C 29.285156 -17.289062 26.125 -16.609375 22.34375 -16.609375 L 15.359375 -16.609375 L 15.359375 0 L 4.09375 0 L 4.09375 -46.28125 L 22.34375 -46.28125 C 26.039062 -46.28125 29.160156 -45.640625 31.703125 -44.359375 C 34.253906 -43.085938 36.164062 -41.332031 37.4375 -39.09375 C 38.71875 -36.851562 39.359375 -34.28125 39.359375 -31.375 Z M 21.484375 -25.578125 C 23.640625 -25.578125 25.242188 -26.082031 26.296875 -27.09375 C 27.359375 -28.101562 27.890625 -29.53125 27.890625 -31.375 C 27.890625 -33.21875 27.359375 -34.644531 26.296875 -35.65625 C 25.242188 -36.675781 23.640625 -37.1875 21.484375 -37.1875 L 15.359375 -37.1875 L 15.359375 -25.578125 Z M 21.484375 -25.578125 "></path></g></g></g><g fill="#ffffff" fill-opacity="1"><g transform="translate(699.865376, 137.075856)"><g><path d="M 15.359375 -37.25 L 15.359375 -27.890625 L 30.453125 -27.890625 L 30.453125 -19.1875 L 15.359375 -19.1875 L 15.359375 -9.03125 L 32.4375 -9.03125 L 32.4375 0 L 4.09375 0 L 4.09375 -46.28125 L 32.4375 -46.28125 L 32.4375 -37.25 Z M 15.359375 -37.25 "></path></g></g></g><g fill="#ffffff" fill-opacity="1"><g transform="translate(735.525433, 137.075856)"><g><path d="M 27.6875 0 L 18.0625 -17.46875 L 15.359375 -17.46875 L 15.359375 0 L 4.09375 0 L 4.09375 -46.28125 L 23 -46.28125 C 26.65625 -46.28125 29.765625 -45.640625 32.328125 -44.359375 C 34.898438 -43.085938 36.820312 -41.34375 38.09375 -39.125 C 39.375 -36.90625 40.015625 -34.429688 40.015625 -31.703125 C 40.015625 -28.628906 39.144531 -25.882812 37.40625 -23.46875 C 35.675781 -21.050781 33.117188 -19.335938 29.734375 -18.328125 L 40.40625 0 Z M 15.359375 -25.453125 L 22.34375 -25.453125 C 24.414062 -25.453125 25.96875 -25.957031 27 -26.96875 C 28.03125 -27.976562 28.546875 -29.40625 28.546875 -31.25 C 28.546875 -33.007812 28.03125 -34.394531 27 -35.40625 C 25.96875 -36.414062 24.414062 -36.921875 22.34375 -36.921875 L 15.359375 -36.921875 Z M 15.359375 -25.453125 "></path></g></g></g><g fill="#ffffff" fill-opacity="1"><g transform="translate(778.502062, 137.075856)"><g></g></g></g><g fill="#ffffff" fill-opacity="1"><g transform="translate(792.476054, 137.075856)"><g><path d="M 37.375 -46.28125 L 37.375 -37.25 L 25.109375 -37.25 L 25.109375 0 L 13.84375 0 L 13.84375 -37.25 L 1.578125 -37.25 L 1.578125 -46.28125 Z M 37.375 -46.28125 "></path></g></g></g><g fill="#ffffff" fill-opacity="1"><g transform="translate(831.431881, 137.075856)"><g><path d="M 15.359375 -46.28125 L 15.359375 0 L 4.09375 0 L 4.09375 -46.28125 Z M 15.359375 -46.28125 "></path></g></g></g><g fill="#ffffff" fill-opacity="1"><g transform="translate(850.876832, 137.075856)"><g><path d="M 21.421875 -46.28125 C 26.296875 -46.28125 30.554688 -45.3125 34.203125 -43.375 C 37.859375 -41.4375 40.6875 -38.722656 42.6875 -35.234375 C 44.6875 -31.742188 45.6875 -27.710938 45.6875 -23.140625 C 45.6875 -18.609375 44.6875 -14.582031 42.6875 -11.0625 C 40.6875 -7.550781 37.847656 -4.828125 34.171875 -2.890625 C 30.503906 -0.960938 26.253906 0 21.421875 0 L 4.09375 0 L 4.09375 -46.28125 Z M 20.703125 -9.75 C 24.960938 -9.75 28.28125 -10.914062 30.65625 -13.25 C 33.03125 -15.582031 34.21875 -18.878906 34.21875 -23.140625 C 34.21875 -27.398438 33.03125 -30.71875 30.65625 -33.09375 C 28.28125 -35.46875 24.960938 -36.65625 20.703125 -36.65625 L 15.359375 -36.65625 L 15.359375 -9.75 Z M 20.703125 -9.75 "></path></g></g></g><g fill="#ffffff" fill-opacity="1"><g transform="translate(898.797116, 137.075856)"><g><path d="M 32.890625 -8.171875 L 15.625 -8.171875 L 12.859375 0 L 1.0625 0 L 17.796875 -46.28125 L 30.84375 -46.28125 L 47.59375 0 L 35.65625 0 Z M 30 -16.875 L 24.265625 -33.8125 L 18.59375 -16.875 Z M 30 -16.875 "></path></g></g></g><g fill="#ffffff" fill-opacity="1"><g transform="translate(947.376555, 137.075856)"><g><path d="M 30.921875 0 L 15.359375 -20.4375 L 15.359375 0 L 4.09375 0 L 4.09375 -46.28125 L 15.359375 -46.28125 L 15.359375 -25.96875 L 30.78125 -46.28125 L 44.03125 -46.28125 L 26.109375 -23.59375 L 44.6875 0 Z M 30.921875 0 "></path></g></g></g><g fill="#ffffff" fill-opacity="1"><g transform="translate(253.122096, 202.990889)"><g><path d="M 20.828125 0.46875 C 17.441406 0.46875 14.410156 -0.078125 11.734375 -1.171875 C 9.054688 -2.273438 6.914062 -3.90625 5.3125 -6.0625 C 3.707031 -8.21875 2.859375 -10.8125 2.765625 -13.84375 L 14.765625 -13.84375 C 14.941406 -12.125 15.535156 -10.8125 16.546875 -9.90625 C 17.554688 -9.007812 18.875 -8.5625 20.5 -8.5625 C 22.164062 -8.5625 23.484375 -8.945312 24.453125 -9.71875 C 25.421875 -10.488281 25.90625 -11.554688 25.90625 -12.921875 C 25.90625 -14.066406 25.519531 -15.007812 24.75 -15.75 C 23.976562 -16.5 23.03125 -17.113281 21.90625 -17.59375 C 20.789062 -18.082031 19.203125 -18.632812 17.140625 -19.25 C 14.148438 -20.175781 11.707031 -21.097656 9.8125 -22.015625 C 7.925781 -22.941406 6.300781 -24.304688 4.9375 -26.109375 C 3.582031 -27.910156 2.90625 -30.257812 2.90625 -33.15625 C 2.90625 -37.46875 4.460938 -40.84375 7.578125 -43.28125 C 10.703125 -45.71875 14.769531 -46.9375 19.78125 -46.9375 C 24.875 -46.9375 28.976562 -45.71875 32.09375 -43.28125 C 35.21875 -40.84375 36.890625 -37.445312 37.109375 -33.09375 L 24.921875 -33.09375 C 24.828125 -34.582031 24.273438 -35.753906 23.265625 -36.609375 C 22.253906 -37.472656 20.957031 -37.90625 19.375 -37.90625 C 18.019531 -37.90625 16.921875 -37.539062 16.078125 -36.8125 C 15.242188 -36.09375 14.828125 -35.050781 14.828125 -33.6875 C 14.828125 -32.1875 15.53125 -31.019531 16.9375 -30.1875 C 18.34375 -29.351562 20.539062 -28.453125 23.53125 -27.484375 C 26.519531 -26.472656 28.945312 -25.503906 30.8125 -24.578125 C 32.6875 -23.660156 34.300781 -22.320312 35.65625 -20.5625 C 37.019531 -18.8125 37.703125 -16.550781 37.703125 -13.78125 C 37.703125 -11.144531 37.03125 -8.75 35.6875 -6.59375 C 34.351562 -4.4375 32.410156 -2.71875 29.859375 -1.4375 C 27.316406 -0.164062 24.304688 0.46875 20.828125 0.46875 Z M 20.828125 0.46875 "></path></g></g></g><g fill="#ffffff" fill-opacity="1"><g transform="translate(293.659872, 202.990889)"><g><path d="M 15.359375 -37.25 L 15.359375 -27.890625 L 30.453125 -27.890625 L 30.453125 -19.1875 L 15.359375 -19.1875 L 15.359375 -9.03125 L 32.4375 -9.03125 L 32.4375 0 L 4.09375 0 L 4.09375 -46.28125 L 32.4375 -46.28125 L 32.4375 -37.25 Z M 15.359375 -37.25 "></path></g></g></g><g fill="#ffffff" fill-opacity="1"><g transform="translate(329.319929, 202.990889)"><g><path d="M 20.828125 0.46875 C 17.441406 0.46875 14.410156 -0.078125 11.734375 -1.171875 C 9.054688 -2.273438 6.914062 -3.90625 5.3125 -6.0625 C 3.707031 -8.21875 2.859375 -10.8125 2.765625 -13.84375 L 14.765625 -13.84375 C 14.941406 -12.125 15.535156 -10.8125 16.546875 -9.90625 C 17.554688 -9.007812 18.875 -8.5625 20.5 -8.5625 C 22.164062 -8.5625 23.484375 -8.945312 24.453125 -9.71875 C 25.421875 -10.488281 25.90625 -11.554688 25.90625 -12.921875 C 25.90625 -14.066406 25.519531 -15.007812 24.75 -15.75 C 23.976562 -16.5 23.03125 -17.113281 21.90625 -17.59375 C 20.789062 -18.082031 19.203125 -18.632812 17.140625 -19.25 C 14.148438 -20.175781 11.707031 -21.097656 9.8125 -22.015625 C 7.925781 -22.941406 6.300781 -24.304688 4.9375 -26.109375 C 3.582031 -27.910156 2.90625 -30.257812 2.90625 -33.15625 C 2.90625 -37.46875 4.460938 -40.84375 7.578125 -43.28125 C 10.703125 -45.71875 14.769531 -46.9375 19.78125 -46.9375 C 24.875 -46.9375 28.976562 -45.71875 32.09375 -43.28125 C 35.21875 -40.84375 36.890625 -37.445312 37.109375 -33.09375 L 24.921875 -33.09375 C 24.828125 -34.582031 24.273438 -35.753906 23.265625 -36.609375 C 22.253906 -37.472656 20.957031 -37.90625 19.375 -37.90625 C 18.019531 -37.90625 16.921875 -37.539062 16.078125 -36.8125 C 15.242188 -36.09375 14.828125 -35.050781 14.828125 -33.6875 C 14.828125 -32.1875 15.53125 -31.019531 16.9375 -30.1875 C 18.34375 -29.351562 20.539062 -28.453125 23.53125 -27.484375 C 26.519531 -26.472656 28.945312 -25.503906 30.8125 -24.578125 C 32.6875 -23.660156 34.300781 -22.320312 35.65625 -20.5625 C 37.019531 -18.8125 37.703125 -16.550781 37.703125 -13.78125 C 37.703125 -11.144531 37.03125 -8.75 35.6875 -6.59375 C 34.351562 -4.4375 32.410156 -2.71875 29.859375 -1.4375 C 27.316406 -0.164062 24.304688 0.46875 20.828125 0.46875 Z M 20.828125 0.46875 "></path></g></g></g><g fill="#ffffff" fill-opacity="1"><g transform="translate(369.857705, 202.990889)"><g><path d="M 15.15625 -46.28125 L 15.15625 -18.59375 C 15.15625 -15.820312 15.835938 -13.6875 17.203125 -12.1875 C 18.566406 -10.695312 20.566406 -9.953125 23.203125 -9.953125 C 25.835938 -9.953125 27.859375 -10.695312 29.265625 -12.1875 C 30.671875 -13.6875 31.375 -15.820312 31.375 -18.59375 L 31.375 -46.28125 L 42.65625 -46.28125 L 42.65625 -18.65625 C 42.65625 -14.519531 41.773438 -11.023438 40.015625 -8.171875 C 38.253906 -5.316406 35.890625 -3.160156 32.921875 -1.703125 C 29.960938 -0.253906 26.65625 0.46875 23 0.46875 C 19.351562 0.46875 16.09375 -0.242188 13.21875 -1.671875 C 10.34375 -3.109375 8.066406 -5.265625 6.390625 -8.140625 C 4.722656 -11.015625 3.890625 -14.519531 3.890625 -18.65625 L 3.890625 -46.28125 Z M 15.15625 -46.28125 "></path></g></g></g><g fill="#ffffff" fill-opacity="1"><g transform="translate(416.327832, 202.990889)"><g><path d="M 15.359375 -8.703125 L 30.125 -8.703125 L 30.125 0 L 4.09375 0 L 4.09375 -46.28125 L 15.359375 -46.28125 Z M 15.359375 -8.703125 "></path></g></g></g><g fill="#ffffff" fill-opacity="1"><g transform="translate(447.769336, 202.990889)"><g><path d="M 15.359375 -46.28125 L 15.359375 0 L 4.09375 0 L 4.09375 -46.28125 Z M 15.359375 -46.28125 "></path></g></g></g><g fill="#ffffff" fill-opacity="1"><g transform="translate(467.214287, 202.990889)"><g><path d="M 37.375 -46.28125 L 37.375 -37.25 L 25.109375 -37.25 L 25.109375 0 L 13.84375 0 L 13.84375 -37.25 L 1.578125 -37.25 L 1.578125 -46.28125 Z M 37.375 -46.28125 "></path></g></g></g><g fill="#ffffff" fill-opacity="1"><g transform="translate(506.170114, 202.990889)"><g></g></g></g><g fill="#ffffff" fill-opacity="1"><g transform="translate(520.144106, 202.990889)"><g><path d="M 43.765625 -46.28125 L 27.75 -15.296875 L 27.75 0 L 16.484375 0 L 16.484375 -15.296875 L 0.46875 -46.28125 L 13.25 -46.28125 L 22.21875 -26.890625 L 31.109375 -46.28125 Z M 43.765625 -46.28125 "></path></g></g></g><g fill="#ffffff" fill-opacity="1"><g transform="translate(564.373119, 202.990889)"><g><path d="M 32.890625 -8.171875 L 15.625 -8.171875 L 12.859375 0 L 1.0625 0 L 17.796875 -46.28125 L 30.84375 -46.28125 L 47.59375 0 L 35.65625 0 Z M 30 -16.875 L 24.265625 -33.8125 L 18.59375 -16.875 Z M 30 -16.875 "></path></g></g></g><g fill="#ffffff" fill-opacity="1"><g transform="translate(612.952535, 202.990889)"><g><path d="M 45.484375 0 L 34.21875 0 L 15.359375 -28.546875 L 15.359375 0 L 4.09375 0 L 4.09375 -46.28125 L 15.359375 -46.28125 L 34.21875 -17.59375 L 34.21875 -46.28125 L 45.484375 -46.28125 Z M 45.484375 0 "></path></g></g></g><g fill="#ffffff" fill-opacity="1"><g transform="translate(662.520681, 202.990889)"><g><path d="M 34.8125 -31.640625 C 33.96875 -33.179688 32.765625 -34.359375 31.203125 -35.171875 C 29.648438 -35.984375 27.816406 -36.390625 25.703125 -36.390625 C 22.054688 -36.390625 19.132812 -35.191406 16.9375 -32.796875 C 14.738281 -30.398438 13.640625 -27.203125 13.640625 -23.203125 C 13.640625 -18.941406 14.789062 -15.613281 17.09375 -13.21875 C 19.40625 -10.820312 22.582031 -9.625 26.625 -9.625 C 29.394531 -9.625 31.734375 -10.328125 33.640625 -11.734375 C 35.554688 -13.140625 36.957031 -15.160156 37.84375 -17.796875 L 23.53125 -17.796875 L 23.53125 -26.109375 L 48.0625 -26.109375 L 48.0625 -15.625 C 47.21875 -12.8125 45.796875 -10.195312 43.796875 -7.78125 C 41.804688 -5.363281 39.269531 -3.40625 36.1875 -1.90625 C 33.113281 -0.414062 29.644531 0.328125 25.78125 0.328125 C 21.207031 0.328125 17.128906 -0.671875 13.546875 -2.671875 C 9.960938 -4.671875 7.171875 -7.445312 5.171875 -11 C 3.171875 -14.5625 2.171875 -18.628906 2.171875 -23.203125 C 2.171875 -27.773438 3.171875 -31.851562 5.171875 -35.4375 C 7.171875 -39.019531 9.953125 -41.804688 13.515625 -43.796875 C 17.078125 -45.796875 21.140625 -46.796875 25.703125 -46.796875 C 31.242188 -46.796875 35.914062 -45.457031 39.71875 -42.78125 C 43.519531 -40.101562 46.035156 -36.390625 47.265625 -31.640625 Z M 34.8125 -31.640625 "></path></g></g></g><g fill="#ffffff" fill-opacity="1"><g transform="translate(712.747959, 202.990889)"><g></g></g></g><g fill="#ffffff" fill-opacity="1"><g transform="translate(726.72195, 202.990889)"><g><path d="M 32.890625 -8.171875 L 15.625 -8.171875 L 12.859375 0 L 1.0625 0 L 17.796875 -46.28125 L 30.84375 -46.28125 L 47.59375 0 L 35.65625 0 Z M 30 -16.875 L 24.265625 -33.8125 L 18.59375 -16.875 Z M 30 -16.875 "></path></g></g></g><g fill="#ffffff" fill-opacity="1"><g transform="translate(775.301343, 202.990889)"><g><path d="M 45.484375 0 L 34.21875 0 L 15.359375 -28.546875 L 15.359375 0 L 4.09375 0 L 4.09375 -46.28125 L 15.359375 -46.28125 L 34.21875 -17.59375 L 34.21875 -46.28125 L 45.484375 -46.28125 Z M 45.484375 0 "></path></g></g></g><g fill="#ffffff" fill-opacity="1"><g transform="translate(824.869466, 202.990889)"><g><path d="M 21.421875 -46.28125 C 26.296875 -46.28125 30.554688 -45.3125 34.203125 -43.375 C 37.859375 -41.4375 40.6875 -38.722656 42.6875 -35.234375 C 44.6875 -31.742188 45.6875 -27.710938 45.6875 -23.140625 C 45.6875 -18.609375 44.6875 -14.582031 42.6875 -11.0625 C 40.6875 -7.550781 37.847656 -4.828125 34.171875 -2.890625 C 30.503906 -0.960938 26.253906 0 21.421875 0 L 4.09375 0 L 4.09375 -46.28125 Z M 20.703125 -9.75 C 24.960938 -9.75 28.28125 -10.914062 30.65625 -13.25 C 33.03125 -15.582031 34.21875 -18.878906 34.21875 -23.140625 C 34.21875 -27.398438 33.03125 -30.71875 30.65625 -33.09375 C 28.28125 -35.46875 24.960938 -36.65625 20.703125 -36.65625 L 15.359375 -36.65625 L 15.359375 -9.75 Z M 20.703125 -9.75 "></path></g></g></g><g fill="#ffffff" fill-opacity="1"><g transform="translate(872.789751, 202.990889)"><g><path d="M 32.890625 -8.171875 L 15.625 -8.171875 L 12.859375 0 L 1.0625 0 L 17.796875 -46.28125 L 30.84375 -46.28125 L 47.59375 0 L 35.65625 0 Z M 30 -16.875 L 24.265625 -33.8125 L 18.59375 -16.875 Z M 30 -16.875 "></path></g></g></g><g fill="#ffffff" fill-opacity="1"><g transform="translate(123.738093, 268.905921)"><g><path d="M 32.109375 -23.734375 C 34.785156 -23.160156 36.9375 -21.828125 38.5625 -19.734375 C 40.1875 -17.648438 41 -15.269531 41 -12.59375 C 41 -8.726562 39.644531 -5.660156 36.9375 -3.390625 C 34.238281 -1.128906 30.472656 0 25.640625 0 L 4.09375 0 L 4.09375 -46.28125 L 24.921875 -46.28125 C 29.617188 -46.28125 33.296875 -45.203125 35.953125 -43.046875 C 38.617188 -40.890625 39.953125 -37.96875 39.953125 -34.28125 C 39.953125 -31.550781 39.234375 -29.285156 37.796875 -27.484375 C 36.367188 -25.679688 34.472656 -24.429688 32.109375 -23.734375 Z M 15.359375 -27.5625 L 22.75 -27.5625 C 24.59375 -27.5625 26.007812 -27.96875 27 -28.78125 C 27.988281 -29.59375 28.484375 -30.789062 28.484375 -32.375 C 28.484375 -33.945312 27.988281 -35.148438 27 -35.984375 C 26.007812 -36.828125 24.59375 -37.25 22.75 -37.25 L 15.359375 -37.25 Z M 23.671875 -9.09375 C 25.554688 -9.09375 27.015625 -9.519531 28.046875 -10.375 C 29.078125 -11.238281 29.59375 -12.484375 29.59375 -14.109375 C 29.59375 -15.734375 29.054688 -17.003906 27.984375 -17.921875 C 26.910156 -18.847656 25.425781 -19.3125 23.53125 -19.3125 L 15.359375 -19.3125 L 15.359375 -9.09375 Z M 23.671875 -9.09375 "></path></g></g></g><g fill="#ffffff" fill-opacity="1"><g transform="translate(167.176125, 268.905921)"><g><path d="M 32.890625 -8.171875 L 15.625 -8.171875 L 12.859375 0 L 1.0625 0 L 17.796875 -46.28125 L 30.84375 -46.28125 L 47.59375 0 L 35.65625 0 Z M 30 -16.875 L 24.265625 -33.8125 L 18.59375 -16.875 Z M 30 -16.875 "></path></g></g></g><g fill="#ffffff" fill-opacity="1"><g transform="translate(215.755541, 268.905921)"><g><path d="M 43.765625 -46.28125 L 27.75 -15.296875 L 27.75 0 L 16.484375 0 L 16.484375 -15.296875 L 0.46875 -46.28125 L 13.25 -46.28125 L 22.21875 -26.890625 L 31.109375 -46.28125 Z M 43.765625 -46.28125 "></path></g></g></g><g fill="#ffffff" fill-opacity="1"><g transform="translate(259.984555, 268.905921)"><g><path d="M 32.890625 -8.171875 L 15.625 -8.171875 L 12.859375 0 L 1.0625 0 L 17.796875 -46.28125 L 30.84375 -46.28125 L 47.59375 0 L 35.65625 0 Z M 30 -16.875 L 24.265625 -33.8125 L 18.59375 -16.875 Z M 30 -16.875 "></path></g></g></g><g fill="#ffffff" fill-opacity="1"><g transform="translate(308.563971, 268.905921)"><g><path d="M 45.484375 0 L 34.21875 0 L 15.359375 -28.546875 L 15.359375 0 L 4.09375 0 L 4.09375 -46.28125 L 15.359375 -46.28125 L 34.21875 -17.59375 L 34.21875 -46.28125 L 45.484375 -46.28125 Z M 45.484375 0 "></path></g></g></g><g fill="#ffffff" fill-opacity="1"><g transform="translate(358.132117, 268.905921)"><g><path d="M 34.8125 -31.640625 C 33.96875 -33.179688 32.765625 -34.359375 31.203125 -35.171875 C 29.648438 -35.984375 27.816406 -36.390625 25.703125 -36.390625 C 22.054688 -36.390625 19.132812 -35.191406 16.9375 -32.796875 C 14.738281 -30.398438 13.640625 -27.203125 13.640625 -23.203125 C 13.640625 -18.941406 14.789062 -15.613281 17.09375 -13.21875 C 19.40625 -10.820312 22.582031 -9.625 26.625 -9.625 C 29.394531 -9.625 31.734375 -10.328125 33.640625 -11.734375 C 35.554688 -13.140625 36.957031 -15.160156 37.84375 -17.796875 L 23.53125 -17.796875 L 23.53125 -26.109375 L 48.0625 -26.109375 L 48.0625 -15.625 C 47.21875 -12.8125 45.796875 -10.195312 43.796875 -7.78125 C 41.804688 -5.363281 39.269531 -3.40625 36.1875 -1.90625 C 33.113281 -0.414062 29.644531 0.328125 25.78125 0.328125 C 21.207031 0.328125 17.128906 -0.671875 13.546875 -2.671875 C 9.960938 -4.671875 7.171875 -7.445312 5.171875 -11 C 3.171875 -14.5625 2.171875 -18.628906 2.171875 -23.203125 C 2.171875 -27.773438 3.171875 -31.851562 5.171875 -35.4375 C 7.171875 -39.019531 9.953125 -41.804688 13.515625 -43.796875 C 17.078125 -45.796875 21.140625 -46.796875 25.703125 -46.796875 C 31.242188 -46.796875 35.914062 -45.457031 39.71875 -42.78125 C 43.519531 -40.101562 46.035156 -36.390625 47.265625 -31.640625 Z M 34.8125 -31.640625 "></path></g></g></g><g fill="#ffffff" fill-opacity="1"><g transform="translate(408.359395, 268.905921)"><g><path d="M 30.921875 0 L 15.359375 -20.4375 L 15.359375 0 L 4.09375 0 L 4.09375 -46.28125 L 15.359375 -46.28125 L 15.359375 -25.96875 L 30.78125 -46.28125 L 44.03125 -46.28125 L 26.109375 -23.59375 L 44.6875 0 Z M 30.921875 0 "></path></g></g></g><g fill="#ffffff" fill-opacity="1"><g transform="translate(454.302217, 268.905921)"><g><path d="M 32.890625 -8.171875 L 15.625 -8.171875 L 12.859375 0 L 1.0625 0 L 17.796875 -46.28125 L 30.84375 -46.28125 L 47.59375 0 L 35.65625 0 Z M 30 -16.875 L 24.265625 -33.8125 L 18.59375 -16.875 Z M 30 -16.875 "></path></g></g></g><g fill="#ffffff" fill-opacity="1"><g transform="translate(502.881633, 268.905921)"><g><path d="M 45.484375 0 L 34.21875 0 L 15.359375 -28.546875 L 15.359375 0 L 4.09375 0 L 4.09375 -46.28125 L 15.359375 -46.28125 L 34.21875 -17.59375 L 34.21875 -46.28125 L 45.484375 -46.28125 Z M 45.484375 0 "></path></g></g></g><g fill="#ffffff" fill-opacity="1"><g transform="translate(552.44978, 268.905921)"><g><path d="M 16.21875 -10.421875 L 8.90625 8.5 L 1.71875 8.5 L 5.53125 -10.421875 Z M 16.21875 -10.421875 "></path></g></g></g><g fill="#ffffff" fill-opacity="1"><g transform="translate(571.36738, 268.905921)"><g></g></g></g><g fill="#ffffff" fill-opacity="1"><g transform="translate(585.341372, 268.905921)"><g><path d="M 39.359375 -31.375 C 39.359375 -28.695312 38.738281 -26.25 37.5 -24.03125 C 36.269531 -21.8125 34.378906 -20.019531 31.828125 -18.65625 C 29.285156 -17.289062 26.125 -16.609375 22.34375 -16.609375 L 15.359375 -16.609375 L 15.359375 0 L 4.09375 0 L 4.09375 -46.28125 L 22.34375 -46.28125 C 26.039062 -46.28125 29.160156 -45.640625 31.703125 -44.359375 C 34.253906 -43.085938 36.164062 -41.332031 37.4375 -39.09375 C 38.71875 -36.851562 39.359375 -34.28125 39.359375 -31.375 Z M 21.484375 -25.578125 C 23.640625 -25.578125 25.242188 -26.082031 26.296875 -27.09375 C 27.359375 -28.101562 27.890625 -29.53125 27.890625 -31.375 C 27.890625 -33.21875 27.359375 -34.644531 26.296875 -35.65625 C 25.242188 -36.675781 23.640625 -37.1875 21.484375 -37.1875 L 15.359375 -37.1875 L 15.359375 -25.578125 Z M 21.484375 -25.578125 "></path></g></g></g><g fill="#ffffff" fill-opacity="1"><g transform="translate(626.472388, 268.905921)"><g><path d="M 15.359375 -37.25 L 15.359375 -27.890625 L 30.453125 -27.890625 L 30.453125 -19.1875 L 15.359375 -19.1875 L 15.359375 -9.03125 L 32.4375 -9.03125 L 32.4375 0 L 4.09375 0 L 4.09375 -46.28125 L 32.4375 -46.28125 L 32.4375 -37.25 Z M 15.359375 -37.25 "></path></g></g></g><g fill="#ffffff" fill-opacity="1"><g transform="translate(662.132445, 268.905921)"><g><path d="M 27.6875 0 L 18.0625 -17.46875 L 15.359375 -17.46875 L 15.359375 0 L 4.09375 0 L 4.09375 -46.28125 L 23 -46.28125 C 26.65625 -46.28125 29.765625 -45.640625 32.328125 -44.359375 C 34.898438 -43.085938 36.820312 -41.34375 38.09375 -39.125 C 39.375 -36.90625 40.015625 -34.429688 40.015625 -31.703125 C 40.015625 -28.628906 39.144531 -25.882812 37.40625 -23.46875 C 35.675781 -21.050781 33.117188 -19.335938 29.734375 -18.328125 L 40.40625 0 Z M 15.359375 -25.453125 L 22.34375 -25.453125 C 24.414062 -25.453125 25.96875 -25.957031 27 -26.96875 C 28.03125 -27.976562 28.546875 -29.40625 28.546875 -31.25 C 28.546875 -33.007812 28.03125 -34.394531 27 -35.40625 C 25.96875 -36.414062 24.414062 -36.921875 22.34375 -36.921875 L 15.359375 -36.921875 Z M 15.359375 -25.453125 "></path></g></g></g><g fill="#ffffff" fill-opacity="1"><g transform="translate(705.109075, 268.905921)"><g><path d="M 2.171875 -23.203125 C 2.171875 -27.773438 3.160156 -31.851562 5.140625 -35.4375 C 7.117188 -39.019531 9.875 -41.804688 13.40625 -43.796875 C 16.945312 -45.796875 20.960938 -46.796875 25.453125 -46.796875 C 30.941406 -46.796875 35.640625 -45.347656 39.546875 -42.453125 C 43.460938 -39.554688 46.078125 -35.601562 47.390625 -30.59375 L 35 -30.59375 C 34.082031 -32.519531 32.773438 -33.988281 31.078125 -35 C 29.390625 -36.007812 27.46875 -36.515625 25.3125 -36.515625 C 21.84375 -36.515625 19.03125 -35.304688 16.875 -32.890625 C 14.71875 -30.472656 13.640625 -27.242188 13.640625 -23.203125 C 13.640625 -19.160156 14.71875 -15.929688 16.875 -13.515625 C 19.03125 -11.097656 21.84375 -9.890625 25.3125 -9.890625 C 27.46875 -9.890625 29.390625 -10.394531 31.078125 -11.40625 C 32.773438 -12.414062 34.082031 -13.890625 35 -15.828125 L 47.390625 -15.828125 C 46.078125 -10.816406 43.460938 -6.867188 39.546875 -3.984375 C 35.640625 -1.109375 30.941406 0.328125 25.453125 0.328125 C 20.960938 0.328125 16.945312 -0.671875 13.40625 -2.671875 C 9.875 -4.671875 7.117188 -7.445312 5.140625 -11 C 3.160156 -14.5625 2.171875 -18.628906 2.171875 -23.203125 Z M 2.171875 -23.203125 "></path></g></g></g><g fill="#ffffff" fill-opacity="1"><g transform="translate(755.336352, 268.905921)"><g><path d="M 32.890625 -8.171875 L 15.625 -8.171875 L 12.859375 0 L 1.0625 0 L 17.796875 -46.28125 L 30.84375 -46.28125 L 47.59375 0 L 35.65625 0 Z M 30 -16.875 L 24.265625 -33.8125 L 18.59375 -16.875 Z M 30 -16.875 "></path></g></g></g><g fill="#ffffff" fill-opacity="1"><g transform="translate(803.915791, 268.905921)"><g><path d="M 43.765625 -46.28125 L 27.75 -15.296875 L 27.75 0 L 16.484375 0 L 16.484375 -15.296875 L 0.46875 -46.28125 L 13.25 -46.28125 L 22.21875 -26.890625 L 31.109375 -46.28125 Z M 43.765625 -46.28125 "></path></g></g></g><g fill="#ffffff" fill-opacity="1"><g transform="translate(848.144804, 268.905921)"><g><path d="M 32.890625 -8.171875 L 15.625 -8.171875 L 12.859375 0 L 1.0625 0 L 17.796875 -46.28125 L 30.84375 -46.28125 L 47.59375 0 L 35.65625 0 Z M 30 -16.875 L 24.265625 -33.8125 L 18.59375 -16.875 Z M 30 -16.875 "></path></g></g></g><g fill="#ffffff" fill-opacity="1"><g transform="translate(896.724197, 268.905921)"><g><path d="M 15.359375 -8.703125 L 30.125 -8.703125 L 30.125 0 L 4.09375 0 L 4.09375 -46.28125 L 15.359375 -46.28125 Z M 15.359375 -8.703125 "></path></g></g></g><g fill="#ffffff" fill-opacity="1"><g transform="translate(928.165723, 268.905921)"><g><path d="M 32.890625 -8.171875 L 15.625 -8.171875 L 12.859375 0 L 1.0625 0 L 17.796875 -46.28125 L 30.84375 -46.28125 L 47.59375 0 L 35.65625 0 Z M 30 -16.875 L 24.265625 -33.8125 L 18.59375 -16.875 Z M 30 -16.875 "></path></g></g></g><g fill="#ffffff" fill-opacity="1"><g transform="translate(976.745161, 268.905921)"><g><path d="M 44.171875 -46.28125 L 44.171875 0 L 32.890625 0 L 32.890625 -19.046875 L 15.359375 -19.046875 L 15.359375 0 L 4.09375 0 L 4.09375 -46.28125 L 15.359375 -46.28125 L 15.359375 -28.15625 L 32.890625 -28.15625 L 32.890625 -46.28125 Z M 44.171875 -46.28125 "></path></g></g></g><g fill="#ffffff" fill-opacity="1"><g transform="translate(1024.929052, 268.905921)"><g><path d="M 18.921875 -47.921875 L 17.59375 -16.34375 L 8.046875 -16.34375 L 6.71875 -47.921875 Z M 12.984375 0.53125 C 11.003906 0.53125 9.390625 -0.0507812 8.140625 -1.21875 C 6.890625 -2.382812 6.265625 -3.820312 6.265625 -5.53125 C 6.265625 -7.289062 6.890625 -8.765625 8.140625 -9.953125 C 9.390625 -11.140625 11.003906 -11.734375 12.984375 -11.734375 C 14.921875 -11.734375 16.515625 -11.140625 17.765625 -9.953125 C 19.015625 -8.765625 19.640625 -7.289062 19.640625 -5.53125 C 19.640625 -3.820312 19.015625 -2.382812 17.765625 -1.21875 C 16.515625 -0.0507812 14.921875 0.53125 12.984375 0.53125 Z M 12.984375 0.53125 "></path></g></g></g></svg>