<svg width="21" height="21" viewBox="0 0 21 21" fill="none" xmlns="http://www.w3.org/2000/svg">
<g clip-path="url(#clip0_3_149393)">
<path d="M19.2498 14.805V17.43C19.2507 17.6737 19.2008 17.9149 19.1032 18.1382C19.0056 18.3615 18.8624 18.5619 18.6828 18.7267C18.5033 18.8914 18.2913 19.0168 18.0604 19.0949C17.8296 19.173 17.585 19.202 17.3423 19.18C14.6497 18.8875 12.0634 17.9674 9.79101 16.4938C7.67686 15.1504 5.88443 13.3579 4.54101 11.2438C3.06224 8.96108 2.14197 6.36214 1.85476 3.65752C1.83289 3.41556 1.86165 3.17169 1.9392 2.94145C2.01674 2.7112 2.14138 2.49963 2.30518 2.32019C2.46897 2.14076 2.66834 1.99739 2.89058 1.89923C3.11281 1.80107 3.35306 1.75025 3.59601 1.75002H6.22101C6.64565 1.74584 7.05733 1.89622 7.3793 2.17311C7.70127 2.45001 7.91158 2.83454 7.97101 3.25502C8.0818 4.09508 8.28728 4.91991 8.58351 5.71377C8.70123 6.02696 8.72671 6.36732 8.65693 6.69454C8.58714 7.02176 8.42501 7.32212 8.18976 7.56002L7.07851 8.67127C8.32412 10.8619 10.1379 12.6757 12.3285 13.9213L13.4398 12.81C13.6777 12.5748 13.978 12.4126 14.3052 12.3429C14.6325 12.2731 14.9728 12.2985 15.286 12.4163C16.0799 12.7125 16.9047 12.918 17.7448 13.0288C18.1698 13.0887 18.558 13.3028 18.8355 13.6303C19.113 13.9578 19.2604 14.3759 19.2498 14.805Z" stroke="#A1A2A3" stroke-width="2" stroke-linecap="round" stroke-linejoin="round"/>
</g>
<defs>
<clipPath id="clip0_3_149393">
<rect width="21" height="21" fill="white"/>
</clipPath>
</defs>
</svg>
